<?xml version="1.0" standalone="no"?>
<!DOCTYPE svg PUBLIC "-//W3C//DTD SVG 20010904//EN"
 "http://www.w3.org/TR/2001/REC-SVG-20010904/DTD/svg10.dtd">
<svg version="1.0" xmlns="http://www.w3.org/2000/svg"
 width="5315.000000pt" height="5315.000000pt" viewBox="0 0 5315.000000 5315.000000"
 preserveAspectRatio="xMidYMid meet">

<g transform="translate(0.000000,5315.000000) scale(0.100000,-0.100000)"
fill="#000000" stroke="none">
<path d="M21743 33243 c-513 -639 -906 -1379 -1196 -2252 l-71 -214 47 -241
c26 -132 54 -274 61 -313 l14 -73 -47 -42 c-25 -24 -59 -53 -75 -66 -17 -13
-26 -26 -20 -31 5 -5 140 -91 299 -193 200 -126 371 -246 550 -382 143 -109
266 -204 273 -211 21 -19 -10 -59 -65 -86 -39 -19 -56 -21 -126 -16 -87 5
-207 43 -294 92 -25 14 -48 23 -50 21 -6 -5 14 -471 27 -646 6 -74 22 -241 37
-370 14 -129 26 -296 27 -372 1 -131 0 -137 -23 -162 -27 -29 -58 -33 -87 -11
-28 21 -31 19 -38 -23 -8 -52 -46 -87 -94 -86 -63 1 -88 18 -122 83 -35 65
-45 73 -55 40 -4 -11 -18 -24 -31 -30 -52 -19 -168 69 -246 189 -42 64 -43 65
-48 37 -3 -15 -10 -30 -16 -32 -29 -10 -149 164 -257 369 l-35 67 -7 -144 c-4
-80 -4 -191 -1 -247 4 -57 7 -236 8 -398 1 -357 38 -1103 148 -2970 145 -2446
289 -4464 400 -5596 l20 -202 -45 -81 c-212 -382 -413 -848 -524 -1208 -137
-447 -190 -789 -198 -1284 -7 -426 3 -580 97 -1408 21 -190 48 -458 60 -596
26 -309 64 -612 136 -1085 50 -334 98 -634 348 -2180 170 -1052 253 -1635 262
-1855 3 -66 10 -132 15 -146 35 -93 259 -132 626 -111 109 7 235 17 280 23 76
11 82 14 87 38 42 207 307 3620 646 8311 l70 975 57 150 c278 743 576 1825
837 3045 63 297 191 931 217 1078 6 39 15 72 18 72 3 0 46 -116 94 -258 426
-1242 902 -2267 1415 -3052 52 -80 117 -189 143 -242 l49 -98 -127 -177 c-161
-225 -443 -653 -560 -848 -529 -883 -796 -1606 -1053 -2850 -86 -417 -144
-905 -365 -3035 -170 -1643 -243 -2241 -312 -2554 -26 -118 -26 -118 -7 -154
37 -68 183 -143 401 -206 209 -60 476 -115 505 -103 43 16 718 1833 2333 6277
321 883 734 2017 917 2520 l333 915 -1 1090 c-1 1388 -25 2365 -89 3570 -162
3042 -527 5312 -1041 6480 -34 77 -47 120 -54 187 -36 315 -218 1007 -535
2039 -89 287 -334 1061 -339 1066 0 1 -70 -16 -154 -37 -362 -91 -653 -124
-1092 -124 -404 1 -656 24 -1070 100 -346 63 -914 225 -1137 322 -39 18 -73
32 -76 32 -2 0 -35 -39 -74 -87z"/>
<path d="M22855 9084 c-218 -163 -352 -335 -415 -530 -29 -90 -45 -246 -76
-739 -3 -49 -7 -103 -9 -120 -2 -16 -6 -75 -10 -130 -3 -55 -8 -118 -10 -140
-2 -22 -7 -79 -10 -126 l-7 -86 57 -87 c32 -47 61 -86 65 -86 3 0 104 181 224
403 120 221 221 405 225 409 3 4 75 -228 160 -515 85 -287 158 -529 162 -537
13 -27 393 -167 634 -235 286 -80 508 -115 730 -115 148 0 292 22 353 54 l32
16 -319 301 -319 300 -158 3 c-125 2 -176 8 -238 25 -178 48 -317 141 -398
266 -22 33 -90 161 -152 285 -242 483 -405 992 -433 1347 -3 50 -10 83 -17 83
-6 0 -38 -21 -71 -46z"/>
<path d="M20765 8438 c-125 -134 -212 -279 -265 -437 -44 -130 -50 -254 -21
-456 32 -233 65 -476 122 -907 l53 -398 46 0 47 0 148 500 c82 275 152 500
155 500 3 -1 123 -221 268 -489 l263 -489 92 -16 c506 -89 929 -106 1247 -50
173 30 405 119 416 159 2 6 -92 68 -209 139 -117 71 -285 174 -374 228 l-163
99 -46 -16 c-141 -48 -372 -57 -509 -19 -82 22 -172 65 -222 105 -84 69 -335
381 -490 610 -220 326 -356 588 -448 862 -24 71 -45 131 -48 133 -2 3 -30 -24
-62 -58z"/>
</g>
</svg>
